<svg xmlns="http://www.w3.org/2000/svg" width="512" height="512" viewBox="0 0 64 64" fill="none">
  <title>PolyLab X Avatar Classic Dots</title>
  <circle cx="32" cy="32" r="32" fill="#050b16"/>
  <circle cx="32" cy="32" r="29" fill="#0d1528"/>
  <rect x="11" y="7" width="42" height="50" rx="13" fill="#15203a"/>
  <path d="M24 16h16" stroke="#F8FAFC" stroke-width="3.1" stroke-linecap="round"/>
  <path d="M28 16v8l-9 14a10 10 0 0 0 8.4 15h9.2a10 10 0 0 0 8.4-15l-9-14v-8" stroke="#F8FAFC" stroke-width="3.2" stroke-linecap="round" stroke-linejoin="round"/>
  <path d="M23 36h18" stroke="#2E75FF" stroke-width="3" stroke-linecap="round" opacity="0.95"/>
  <path d="M24 44l5-5 5 4 6-7" stroke="#2E75FF" stroke-width="3.1" stroke-linecap="round" stroke-linejoin="round"/>
  <circle cx="24" cy="44" r="1.8" fill="#2E75FF"/>
  <circle cx="29" cy="39" r="1.8" fill="#2E75FF"/>
  <circle cx="34" cy="43" r="1.8" fill="#2E75FF"/>
  <circle cx="40" cy="36" r="1.8" fill="#2E75FF"/>
</svg>
