<svg xmlns="http://www.w3.org/2000/svg" width="512" height="512" viewBox="0 0 64 64" fill="none">
  <title>PolyLab X Avatar Faithful</title>
  <circle cx="32" cy="32" r="32" fill="#050b16"/>
  <circle cx="32" cy="32" r="29" fill="#0d1528"/>
  <rect x="11" y="7" width="42" height="50" rx="13" fill="#141f36" stroke="#1d2b49" stroke-width="1.2"/>
  <path d="M24 16h16" stroke="#CBD5E1" stroke-width="2.9" stroke-linecap="round"/>
  <path d="M28 16v8l-9 14a10 10 0 0 0 8.4 15h9.2a10 10 0 0 0 8.4-15l-9-14v-8" stroke="#F8FAFC" stroke-width="3" stroke-linecap="round" stroke-linejoin="round"/>
  <path d="M23 36h18" stroke="#2E75FF" stroke-width="2.7" stroke-linecap="round" opacity="0.92"/>
  <path d="M24 44l5-5 5 4 6-7" stroke="#2E75FF" stroke-width="2.8" stroke-linecap="round" stroke-linejoin="round"/>
  <circle cx="24" cy="44" r="1.45" fill="#2E75FF"/>
  <circle cx="29" cy="39" r="1.45" fill="#2E75FF"/>
  <circle cx="34" cy="43" r="1.45" fill="#2E75FF"/>
  <circle cx="40" cy="36" r="1.45" fill="#2E75FF"/>
</svg>
